<svg xmlns="http://www.w3.org/2000/svg" width="1200" height="420" viewBox="0 0 1200 420" role="img" aria-labelledby="title desc">
  <title id="title">lucid</title>
  <desc id="desc">MEMORY</desc>
  <defs>
    <radialGradient id="bg" cx="0.32" cy="0.42" r="0.95" gradientUnits="userSpaceOnUse">
      <stop offset="0" stop-color="#15101F"/>
      <stop offset="0.55" stop-color="#0C0F16"/>
      <stop offset="1" stop-color="#0B0E11"/>
    </radialGradient>
    <linearGradient id="acc" x1="0" y1="0" x2="1" y2="0">
      <stop offset="0" stop-color="#7C5CFF"/>
      <stop offset="1" stop-color="#9B7BFF"/>
    </linearGradient>
    <linearGradient id="panel" x1="0" y1="0" x2="0" y2="1">
      <stop offset="0" stop-color="#161B26"/>
      <stop offset="1" stop-color="#10131B"/>
    </linearGradient>
  </defs>
  <rect width="1200" height="420" fill="url(#bg)"/>
  <rect x="598" y="56" width="1" height="312" fill="#222838"/>
  <text x="64" y="74" font-family="-apple-system,BlinkMacSystemFont,Segoe UI,sans-serif" font-size="12" letter-spacing="3" fill="#7C5CFF">MEMORY</text>
  <text x="62" y="128" font-family="-apple-system,BlinkMacSystemFont,Segoe UI,sans-serif" font-size="50" font-weight="700" fill="#F4F6FB">lucid</text>
  <rect x="64" y="146" width="52" height="4" rx="2" fill="url(#acc)"/>
<text x="64" y="176" font-family="-apple-system,BlinkMacSystemFont,Segoe UI,sans-serif" font-size="17" fill="#C7CEDB">Nightly journal curator</text>
<text x="64" y="204" font-family="-apple-system,BlinkMacSystemFont,Segoe UI,sans-serif" font-size="17" fill="#C7CEDB">to MemPalace verifiable</text>
<text x="64" y="232" font-family="-apple-system,BlinkMacSystemFont,Segoe UI,sans-serif" font-size="17" fill="#C7CEDB">memory store</text>
<path d="M1070 110 A 50 50 0 1 0 1070 210 A 38 38 0 1 1 1070 110 Z" fill="url(#acc)" opacity="0.85"/><rect x="650" y="260" width="120" height="90" rx="8" fill="url(#panel)" stroke="#2A3350"/>
<rect x="690" y="230" width="120" height="90" rx="8" fill="url(#panel)" stroke="#2A3350"/>
<rect x="730" y="200" width="120" height="90" rx="8" fill="url(#panel)" stroke="#2A3350"/>
<path d="M850 230 C 880 230, 880 260, 900 260" fill="none" stroke="#7C5CFF" stroke-width="2" opacity="0.5"/><rect x="900" y="220" width="150" height="110" rx="12" fill="#0E111A" stroke="url(#acc)" stroke-width="2"/><rect x="920" y="250" width="110" height="10" rx="5" fill="#1C2230"/><rect x="920" y="274" width="80" height="10" rx="5" fill="#1C2230"/>
</svg>